<?xml version="1.0" encoding="iso-8859-1"?>
<!DOCTYPE svg PUBLIC "-//W3C//DTD SVG 1.1//EN" "http://www.w3.org/Graphics/SVG/1.1/DTD/svg11.dtd">
<svg 
 version="1.1" xmlns="http://www.w3.org/2000/svg" xmlns:xlink="http://www.w3.org/1999/xlink" x="0px" y="0px" width="512px"
	 height="512px" viewBox="0 0 512 512" enable-background="new 0 0 512 512" xml:space="preserve"
><g id="5151e0c8492e5103c096af88a5068d62"><g></g><path display="inline" d="M339.179,291.11c23.754,21.758,25.378,58.789,3.62,82.542c-11.04,12.046-26.747,18.963-43.102,18.963
		c-14.634,0-28.634-5.451-39.44-15.342c-11.508-10.538-18.219-24.931-18.9-40.521c-0.688-15.59,4.742-30.513,15.28-42.021
		c11.04-12.046,26.748-18.956,43.102-18.956h0.007C314.372,275.775,328.379,281.22,339.179,291.11z M467.448,352.914
		c0,87.587-70.999,158.586-158.586,158.586c-38.215,0-73.268-13.521-100.648-36.033c-91.971-4.825-162.481-31.355-163.607-63.496
		h-0.055V65.563C44.552,29.631,131.33,0.5,238.379,0.5c107.046,0,193.828,29.131,193.828,65.063c0,0.552-0.083,1.101-0.124,1.65
		l0.124-0.057v186.119C454.232,280.507,467.448,315.16,467.448,352.914z M112.811,91.112
		c33.899,10.619,78.495,16.468,125.568,16.468c47.074,0,91.669-5.849,125.568-16.468c34.915-10.937,44.679-22.626,45.614-25.55
		c-0.936-2.925-10.703-14.615-45.617-25.554c-33.899-10.617-78.495-16.468-125.565-16.468c-47.073,0-91.665,5.851-125.568,16.468
		C77.9,50.948,68.133,62.637,67.197,65.563C68.133,68.486,77.897,80.175,112.811,91.112z M183.896,450.492
		c-21.045-26.91-33.621-60.765-33.621-97.578c0-22.318,4.632-43.546,12.951-62.809c-35.355-5.004-65.39-13.411-86.373-24.025
		v145.891c2.124,3.841,3.552,14.627,35.957,24.779C133.22,443.141,157.524,447.79,183.896,450.492z M308.862,194.328
		c33.896,0,65.282,10.668,91.056,28.782c-0.003-0.003-0.01-0.007-0.014-0.011V101.52c-34.725,17.538-94.092,29.104-161.525,29.104
		c-67.433,0-126.803-11.565-161.525-29.104v129.405c2.124,3.839,3.552,14.626,35.957,24.779c18.01,5.637,39.062,9.918,61.879,12.706
		C202.776,223.909,252.349,194.328,308.862,194.328z M409.572,424.305l-49.854-45.662c22.535-30.348,18.915-73.429-9.567-99.516
		c-14.331-13.126-32.398-19.603-50.412-19.603c-20.208,0-40.355,8.156-55.085,24.235c-27.849,30.409-25.777,77.641,4.632,105.497
		c14.331,13.133,32.399,19.603,50.412,19.603c17.786,0,35.517-6.318,49.552-18.791l49.854,45.663L409.572,424.305z"></path></g></svg>